<svg width="23" height="26" viewBox="0 0 23 26" fill="none" xmlns="http://www.w3.org/2000/svg">
<g clip-path="url(#clip0_428_65)">
<path d="M17.0453 9.36208C18.7234 10.5585 20.7792 11.2625 22.9995 11.2625V7.00119C22.5792 7.00136 22.1601 6.9576 21.749 6.87065V10.2249C19.5289 10.2249 17.4734 9.52104 15.7949 8.32468V17.0209C15.7949 21.3712 12.259 24.8975 7.89763 24.8975C6.27029 24.8975 4.75769 24.4069 3.50122 23.5653C4.93531 25.0278 6.93523 25.935 9.14772 25.935C13.5095 25.935 17.0454 22.4087 17.0454 18.0582V9.36208H17.0453ZM18.5879 5.06294C17.7302 4.12846 17.1671 2.9208 17.0453 1.58566V1.0376H15.8603C16.1586 2.7345 17.1761 4.18423 18.5879 5.06294ZM6.25978 20.227C5.78059 19.6005 5.52158 18.8339 5.52279 18.0457C5.52279 16.0561 7.14007 14.4428 9.13541 14.4428C9.50721 14.4426 9.87681 14.4996 10.2312 14.6117V10.255C9.81706 10.1985 9.3991 10.1744 8.98133 10.1832V13.5742C8.62673 13.4621 8.25694 13.4052 7.88497 13.4054C5.88972 13.4054 4.27253 15.0185 4.27253 17.0084C4.27253 18.4155 5.08085 19.6336 6.25978 20.227Z" fill="#FF004F"/>
<path d="M15.7947 8.32459C17.4732 9.52095 19.5286 10.2248 21.7488 10.2248V6.87056C20.5095 6.60725 19.4124 5.96137 18.5876 5.06294C17.1757 4.18414 16.1584 2.73441 15.8601 1.0376H12.7476V18.058C12.7405 20.0423 11.126 21.6489 9.13502 21.6489C7.96184 21.6489 6.91947 21.0911 6.25939 20.2269C5.08064 19.6336 4.27223 18.4154 4.27223 17.0085C4.27223 15.0188 5.88941 13.4055 7.88466 13.4055C8.26695 13.4055 8.6354 13.4649 8.98103 13.5743V10.1833C4.6962 10.2716 1.25024 13.7635 1.25024 18.0581C1.25024 20.2019 2.10834 22.1454 3.5011 23.5654C4.75756 24.4068 6.27008 24.8977 7.89751 24.8977C12.259 24.8977 15.7948 21.3711 15.7948 17.0209L15.7947 8.32459Z" fill="black"/>
<path d="M21.7489 6.87027V5.9635C20.6314 5.96512 19.5359 5.65297 18.5877 5.06274C19.427 5.9792 20.5322 6.6112 21.7489 6.87045M15.8601 1.03731C15.8317 0.875175 15.8099 0.711959 15.7947 0.548062V0H11.4971V17.0206C11.4903 19.0047 9.87581 20.6113 7.88469 20.6113C7.32022 20.6121 6.76347 20.4804 6.25941 20.2269C6.9195 21.0909 7.96186 21.6486 9.13504 21.6486C11.126 21.6486 12.7407 20.0421 12.7477 18.0579V1.0374L15.8601 1.03731ZM8.98132 10.183V9.21754C8.6222 9.16861 8.26017 9.14411 7.89772 9.1442C3.5358 9.1442 0 12.6707 0 17.0206C0 19.7478 1.38961 22.1513 3.5013 23.5651C2.10854 22.1451 1.25045 20.2015 1.25045 18.0578C1.25045 13.7633 4.69631 10.2713 8.98132 10.183Z" fill="#00F2EA"/>
</g>
<defs>
<clipPath id="clip0_428_65">
<rect width="23" height="26" fill="white"/>
</clipPath>
</defs>
</svg>
